<?xml version="1.0" encoding="UTF-8" standalone="no"?>
<!-- Created with Inkscape (http://www.inkscape.org/) -->

<svg
   width="210.21066mm"
   height="65.157104mm"
   viewBox="0 0 210.21066 65.157105"
   version="1.1"
   id="svg5"
   xml:space="preserve"
   inkscape:version="1.2.2 (732a01da63, 2022-12-09)"
   sodipodi:docname="booki_refait.svg"
   xmlns:inkscape="http://www.inkscape.org/namespaces/inkscape"
   xmlns:sodipodi="http://sodipodi.sourceforge.net/DTD/sodipodi-0.dtd"
   xmlns="http://www.w3.org/2000/svg"
   xmlns:svg="http://www.w3.org/2000/svg"><sodipodi:namedview
     id="namedview7"
     pagecolor="#ffffff"
     bordercolor="#000000"
     borderopacity="0.25"
     inkscape:showpageshadow="2"
     inkscape:pageopacity="0.0"
     inkscape:pagecheckerboard="0"
     inkscape:deskcolor="#d1d1d1"
     inkscape:document-units="mm"
     showgrid="false"
     inkscape:zoom="0.35590942"
     inkscape:cx="158.74826"
     inkscape:cy="168.58222"
     inkscape:window-width="1366"
     inkscape:window-height="745"
     inkscape:window-x="-8"
     inkscape:window-y="-8"
     inkscape:window-maximized="1"
     inkscape:current-layer="layer1" /><defs
     id="defs2" /><g
     inkscape:label="booki png"
     inkscape:groupmode="layer"
     id="layer1"
     style="display:inline"
     transform="translate(-0.42383797,-115.92145)"><path
       id="path1124"
       style="font-variation-settings:'wght' 300;display:inline;fill:#0065fc;fill-opacity:1;stroke-width:5.01191"
       inkscape:label="gd"
       d="m 127.39424,130.29614 c -14.02312,-2e-5 -25.3912,11.36778 -25.39153,25.39089 -2e-5,14.02336 11.36817,25.39154 25.39153,25.39152 14.02336,2e-5 25.39154,-11.36816 25.39151,-25.39152 -3.2e-4,-14.02311 -11.3684,-25.39091 -25.39151,-25.39089 z m 0,8.73307 c 9.20004,-1.9e-4 16.65829,7.45778 16.65845,16.65782 1.8e-4,9.20029 -7.45816,16.65863 -16.65845,16.65845 -9.20005,-1.6e-4 -16.65801,-7.4584 -16.65783,-16.65845 1.6e-4,-9.1998 7.45803,-16.65766 16.65783,-16.65782 z m -54.892715,-8.73307 c -14.023112,-2e-5 -25.391193,11.36778 -25.391519,25.39089 -2.1e-5,14.02336 11.368162,25.39154 25.391519,25.39152 14.02336,2e-5 25.391547,-11.36816 25.391526,-25.39152 -3.26e-4,-14.02311 -11.368411,-25.39091 -25.391526,-25.39089 z m 0,8.73307 c 9.200045,-2e-4 16.658302,7.45778 16.658458,16.65782 1.91e-4,9.20029 -7.458169,16.65865 -16.658458,16.65845 -9.20004,-1.6e-4 -16.65801,-7.4584 -16.657819,-16.65845 1.56e-4,-9.1998 7.458024,-16.65766 16.657819,-16.65782 z M 210.6345,120.84749 c 0,2.72057 -2.20545,4.92603 -4.92603,4.92603 -2.72057,0 -4.92603,-2.20546 -4.92603,-4.92603 0,-2.72057 2.20546,-4.92604 4.92603,-4.92604 2.72058,0 4.92603,2.20547 4.92603,4.92604 z m -50.62871,-4.92598 0.68621,64.89508 h 9.13944 l 0.15008,-16.69597 14.79509,16.86704 c 0,0 11.92635,0.19575 11.64578,0.0127 -0.17297,-0.11285 -22.94369,-27.75223 -22.94369,-27.75223 l 23.76345,-22.36495 -14.64308,0.0572 -12.31037,11.84294 0.11445,-26.86187 z m -159.50118303,0.0992 -0.080769,65.01273 H 13.648721 c 14.373198,0 19.511904,-1.9076 24.312925,-9.10828 3.750184,-5.62463 3.259336,-13.32235 -0.73454,-20.26754 l -2.709845,-4.71187 0.970482,-2.73973 c 2.96909,-8.38209 3.975685,-16.65436 -2.205525,-22.64543 -4.356603,-4.22258 -10.64883,-5.47835 -22.690578,-5.51318 z m 9.25264793,8.9105 h 5.0571911 c 7.539152,0 11.386391,0.92386 13.131394,5.13668 1.629704,3.93445 2.012581,7.7037 -0.962213,11.3774 -2.394496,2.21787 -5.104548,2.00138 -9.92677,2.08726 l -7.3161374,0.0795 z m 191.5537851,6.15486 v 49.73051 h 8.35659 v -49.73051 z m -73.65294,13.18036 c -3.06794,0 -5.55515,2.48722 -5.55515,5.55516 0,1.71357 0.77605,3.24578 1.99566,4.26476 l -1.67196,12.92662 h 10.20852 l -1.42839,-12.91772 c 1.22577,-1.01894 2.00647,-2.5551 2.00647,-4.27366 0,-3.06794 -2.48719,-5.55516 -5.55515,-5.55516 z M 9.7000301,152.36672 h 7.7136139 c 7.060782,0 7.595532,0.25167 10.235213,2.52222 2.450273,2.10763 3.065349,3.56745 3.065349,7.27607 0,3.7086 -0.615076,5.16845 -3.065349,7.27607 -2.639681,2.27057 -3.174431,2.06371 -10.235213,2.06371 H 9.7000301 Z"
       sodipodi:nodetypes="scscssssssccsccsssssssssscccccsccccccccssccsscccsscccccccccssccccsscssssscc" /></g></svg>
